<svg width="15" height="18" viewBox="0 0 15 18" fill="none" xmlns="http://www.w3.org/2000/svg">
<path d="M14.8465 3.68471L11.3581 0.155294C11.2601 0.0559818 11.1271 0.000123566 10.9884 0H4.01163C3.68782 0 3.37727 0.130147 3.1483 0.361809C2.91933 0.593472 2.7907 0.907674 2.7907 1.23529V2.82353H1.22093C0.897119 2.82353 0.586571 2.95368 0.357602 3.18534C0.128633 3.417 0 3.7312 0 4.05882V16.7647C0 17.0923 0.128633 17.4065 0.357602 17.6382C0.586571 17.8699 0.897119 18 1.22093 18H10.9884C11.3122 18 11.6227 17.8699 11.8517 17.6382C12.0807 17.4065 12.2093 17.0923 12.2093 16.7647V15.1765H13.7791C14.1029 15.1765 14.4134 15.0463 14.6424 14.8147C14.8714 14.583 15 14.2688 15 13.9412V4.05882C14.9999 3.91846 14.9447 3.78389 14.8465 3.68471ZM11.1628 16.7647C11.1628 16.8115 11.1444 16.8564 11.1117 16.8895C11.079 16.9226 11.0346 16.9412 10.9884 16.9412H1.22093C1.17467 16.9412 1.13031 16.9226 1.0976 16.8895C1.06489 16.8564 1.04651 16.8115 1.04651 16.7647V4.05882C1.04651 4.01202 1.06489 3.96713 1.0976 3.93404C1.13031 3.90095 1.17467 3.88235 1.22093 3.88235H7.98052L11.1628 7.10206V16.7647ZM13.9535 13.9412C13.9535 13.988 13.9351 14.0329 13.9024 14.066C13.8697 14.0991 13.8253 14.1176 13.7791 14.1176H12.2093V6.88235C12.2092 6.74199 12.154 6.60742 12.0558 6.50824L8.56744 2.97882C8.46941 2.87951 8.3364 2.82365 8.19767 2.82353H3.83721V1.23529C3.83721 1.18849 3.85559 1.14361 3.8883 1.11051C3.921 1.07742 3.96537 1.05882 4.01163 1.05882H10.7712L13.9535 4.27853V13.9412ZM8.72093 11.1176C8.72093 11.2581 8.6658 11.3927 8.56767 11.492C8.46954 11.5913 8.33645 11.6471 8.19767 11.6471H4.01163C3.87285 11.6471 3.73976 11.5913 3.64163 11.492C3.5435 11.3927 3.48837 11.2581 3.48837 11.1176C3.48837 10.9772 3.5435 10.8426 3.64163 10.7433C3.73976 10.644 3.87285 10.5882 4.01163 10.5882H8.19767C8.33645 10.5882 8.46954 10.644 8.56767 10.7433C8.6658 10.8426 8.72093 10.9772 8.72093 11.1176ZM8.72093 13.9412C8.72093 14.0816 8.6658 14.2162 8.56767 14.3155C8.46954 14.4148 8.33645 14.4706 8.19767 14.4706H4.01163C3.87285 14.4706 3.73976 14.4148 3.64163 14.3155C3.5435 14.2162 3.48837 14.0816 3.48837 13.9412C3.48837 13.8008 3.5435 13.6661 3.64163 13.5668C3.73976 13.4675 3.87285 13.4118 4.01163 13.4118H8.19767C8.33645 13.4118 8.46954 13.4675 8.56767 13.5668C8.6658 13.6661 8.72093 13.8008 8.72093 13.9412Z" fill="#3E90F0"/>
</svg>
