<svg width="17" height="17" viewBox="0 0 17 17" fill="none" xmlns="http://www.w3.org/2000/svg">
<path d="M1 16L3.08333 13.9167M13.9167 3.08333L16 1M6.83333 7.66667L5.16667 9.33333M9.33333 10.1667L7.66667 11.8333M4.33333 8.5L8.5 12.6667L7.25 13.9167C6.97805 14.1976 6.65292 14.4216 6.29354 14.5756C5.93417 14.7296 5.54773 14.8106 5.15676 14.8137C4.76578 14.8169 4.37809 14.7422 4.01626 14.5941C3.65443 14.4459 3.3257 14.2272 3.04923 13.9508C2.77276 13.6743 2.55407 13.3456 2.40592 12.9837C2.25776 12.6219 2.18309 12.2342 2.18627 11.8432C2.18944 11.4523 2.27039 11.0658 2.42441 10.7065C2.57842 10.3471 2.80241 10.0219 3.08333 9.75L4.33333 8.5ZM12.6667 8.5L8.5 4.33333L9.75 3.08333C10.0219 2.80241 10.3471 2.57842 10.7065 2.42441C11.0658 2.27039 11.4523 2.18944 11.8432 2.18627C12.2342 2.18309 12.6219 2.25776 12.9837 2.40592C13.3456 2.55407 13.6743 2.77276 13.9508 3.04923C14.2272 3.3257 14.4459 3.65443 14.5941 4.01626C14.7422 4.37809 14.8169 4.76578 14.8137 5.15676C14.8106 5.54773 14.7296 5.93417 14.5756 6.29354C14.4216 6.65292 14.1976 6.97805 13.9167 7.25L12.6667 8.5Z" stroke="black" stroke-width="2" stroke-linecap="round" stroke-linejoin="round"/>
</svg>
