<svg width="17" height="17" viewBox="0 0 17 17" fill="none" xmlns="http://www.w3.org/2000/svg">
<path d="M15.3104 6.79989C15.3104 6.57445 15.2209 6.35825 15.0615 6.19884C14.9021 6.03944 14.6859 5.94988 14.4604 5.94988C14.235 5.94988 14.0188 6.03944 13.8594 6.19884C13.7 6.35825 13.6104 6.57445 13.6104 6.79989H15.3104ZM3.41044 6.79989C3.41044 6.57445 3.32089 6.35825 3.16149 6.19884C3.00208 6.03944 2.78588 5.94988 2.56044 5.94988C2.33501 5.94988 2.11881 6.03944 1.9594 6.19884C1.8 6.35825 1.71044 6.57445 1.71044 6.79989H3.41044ZM15.5595 9.10087C15.7198 9.2557 15.9345 9.34138 16.1574 9.33944C16.3803 9.3375 16.5934 9.24811 16.751 9.09051C16.9086 8.93291 16.998 8.71972 17 8.49685C17.0019 8.27398 16.9162 8.05927 16.7614 7.89895L15.5595 9.10087ZM8.51045 0.849828L9.11139 0.248871C8.952 0.089519 8.73583 0 8.51045 0C8.28506 0 8.06889 0.089519 7.9095 0.248871L8.51045 0.849828ZM0.259495 7.89895C0.178311 7.97736 0.113556 8.07116 0.0690088 8.17486C0.0244612 8.27857 0.00101284 8.3901 3.20932e-05 8.50297C-0.000948651 8.61583 0.0205578 8.72776 0.0632966 8.83222C0.106035 8.93669 0.16915 9.03159 0.248959 9.1114C0.328768 9.19121 0.423672 9.25433 0.528134 9.29707C0.632596 9.33981 0.744524 9.36131 0.857386 9.36033C0.970249 9.35935 1.08179 9.3359 1.18549 9.29135C1.28919 9.24681 1.38299 9.18205 1.4614 9.10087L0.259495 7.89895ZM4.26044 17H12.7604V15.3H4.26044V17ZM15.3104 14.45V6.79989H13.6104V14.45H15.3104ZM3.41044 14.45V6.79989H1.71044V14.45H3.41044ZM16.7614 7.89895L9.11139 0.248871L7.9095 1.45078L15.5595 9.10087L16.7614 7.89895ZM7.9095 0.248871L0.259495 7.89895L1.4614 9.10087L9.11139 1.45078L7.9095 0.248871ZM12.7604 17C13.4367 17 14.0854 16.7313 14.5636 16.2531C15.0418 15.7749 15.3104 15.1263 15.3104 14.45H13.6104C13.6104 14.6754 13.5209 14.8916 13.3615 15.051C13.2021 15.2104 12.9859 15.3 12.7604 15.3V17ZM4.26044 15.3C4.03501 15.3 3.81881 15.2104 3.6594 15.051C3.5 14.8916 3.41044 14.6754 3.41044 14.45H1.71044C1.71044 15.1263 1.9791 15.7749 2.45732 16.2531C2.93554 16.7313 3.58414 17 4.26044 17V15.3Z" fill="#6D6B72"/>
</svg>
