<svg width="15" height="15" viewBox="0 0 15 15" fill="none" xmlns="http://www.w3.org/2000/svg">
<path d="M13.1579 0.878359C12.5953 0.315946 11.8324 0 11.0369 0C10.2414 0 9.47845 0.315946 8.91586 0.878359L8.45086 1.34236L9.86486 2.75636L10.3299 2.29236C10.5185 2.1102 10.7711 2.00941 11.0333 2.01169C11.2955 2.01396 11.5463 2.11913 11.7317 2.30454C11.9171 2.48995 12.0223 2.74076 12.0245 3.00296C12.0268 3.26516 11.926 3.51776 11.7439 3.70636L8.45086 6.99936L9.86486 8.41336L13.1579 5.12036C13.7203 4.55778 14.0362 3.79485 14.0362 2.99936C14.0362 2.20387 13.7203 1.44094 13.1579 0.878359ZM3.74386 11.7064C3.55526 11.8885 3.30266 11.9893 3.04046 11.987C2.77827 11.9848 2.52745 11.8796 2.34205 11.6942C2.15664 11.5088 2.05147 11.258 2.04919 10.9958C2.04691 10.7336 2.14771 10.481 2.32987 10.2924L5.62287 6.99936L4.20887 5.58536L0.915865 8.87836C0.629334 9.1551 0.400788 9.48613 0.243561 9.85215C0.0863336 10.2182 0.00357472 10.6118 0.00011327 11.0102C-0.00334818 11.4085 0.0725572 11.8035 0.2234 12.1722C0.374243 12.5409 0.597002 12.8759 0.87868 13.1575C1.16036 13.4392 1.49531 13.662 1.864 13.8128C2.23269 13.9637 2.62773 14.0396 3.02607 14.0361C3.42441 14.0326 3.81807 13.9499 4.18408 13.7927C4.55009 13.6354 4.88113 13.4069 5.15787 13.1204L5.62287 12.6564L4.20887 11.2424L3.74386 11.7064ZM5.15787 0.879359C4.58976 0.346127 3.83649 0.054835 3.05744 0.0671186C2.27839 0.0794023 1.53467 0.394298 0.983665 0.945175C0.432658 1.49605 0.117587 2.23969 0.105119 3.01874C0.0926522 3.79779 0.383767 4.55113 0.916865 5.11936L1.38086 5.58436L2.79487 4.17036L2.33086 3.70536C2.14871 3.51676 2.04791 3.26415 2.05019 3.00196C2.05247 2.73976 2.15764 2.48895 2.34305 2.30354C2.52845 2.11813 2.77927 2.01296 3.04146 2.01068C3.30366 2.00841 3.55626 2.1092 3.74487 2.29136L7.03687 5.58536L8.45086 4.17136L5.15787 0.879359Z" fill="#6D6B72"/>
<path d="M13.16 8.87906L12.696 8.41406L11.282 9.82806L11.746 10.2931C11.9282 10.4817 12.029 10.7343 12.0267 10.9965C12.0244 11.2587 11.9192 11.5095 11.7338 11.6949C11.5484 11.8803 11.2976 11.9855 11.0354 11.9877C10.7732 11.99 10.5206 11.8892 10.332 11.7071L7.039 8.41406L5.625 9.82806L8.918 13.1211C9.48381 13.6675 10.2416 13.9699 11.0282 13.9631C11.8148 13.9562 12.5672 13.6407 13.1235 13.0845C13.6797 12.5283 13.9952 11.7759 14.002 10.9893C14.0089 10.2027 13.7065 9.44487 13.16 8.87906Z" fill="#6D6B72"/>
</svg>
